<svg width="17" height="16" viewBox="0 0 17 16" fill="none" xmlns="http://www.w3.org/2000/svg">
    <path d="M8.5 2C5.18486 2 2.5 4.68486 2.5 8C2.5 11.3151 5.18486 14 8.5 14C11.8151 14 14.5 11.3151 14.5 8C14.5 4.68486 11.8151 2 8.5 2ZM12.2171 10.9677C11.835 11.335 11.3189 11.4739 10.7382 10.7345L8.99627 8.61538C8.7134 8.27295 8.18735 8.28288 7.91439 8.63027L6.29653 10.7146C5.67618 11.5087 5.1402 11.3201 4.74814 10.9132C4.11786 10.1042 3.74069 9.09677 3.74069 7.99504C3.74069 5.36973 5.87469 3.23573 8.5 3.23573C11.1253 3.23573 13.2593 5.36973 13.2593 7.99504C13.2593 9.11663 12.8672 10.1489 12.2171 10.9628V10.9677Z" fill="#0D64E8"/>
</svg>