<svg width="18" height="18" viewBox="0 0 18 18" fill="none" xmlns="http://www.w3.org/2000/svg">
<g clip-path="url(#clip0_22_30732)">
<path fill-rule="evenodd" clip-rule="evenodd" d="M0 3.36949C0 1.92278 1.17278 0.75 2.61949 0.75H15.193C16.6397 0.75 17.8125 1.92278 17.8125 3.36949V11.0533C17.8125 12.5 16.6397 13.6728 15.193 13.6728H9.56135C9.51261 13.6728 9.46609 13.6932 9.43303 13.729L5.69166 17.7821C5.28192 18.226 4.54044 17.9361 4.54044 17.332V13.8474C4.54044 13.751 4.46226 13.6728 4.36581 13.6728H2.61948C1.17278 13.6728 0 12.5 0 11.0533V3.36949ZM2.61949 1.79779C1.75146 1.79779 1.04779 2.50146 1.04779 3.36949V11.0533C1.04779 11.9213 1.75146 12.625 2.61948 12.625H4.36581C5.04094 12.625 5.58823 13.1723 5.58823 13.8474V16.3494L8.66311 13.0183C8.89452 12.7676 9.22017 12.625 9.56135 12.625H15.193C16.061 12.625 16.7647 11.9213 16.7647 11.0533V3.36949C16.7647 2.50146 16.061 1.79779 15.193 1.79779H2.61949Z" fill="black"/>
</g>
<defs>
<clipPath id="clip0_22_30732">
<rect width="18" height="18" fill="white"/>
</clipPath>
</defs>
</svg>
