<svg width="12" height="13" viewBox="0 0 12 13" fill="none" xmlns="http://www.w3.org/2000/svg">
<path fill-rule="evenodd" clip-rule="evenodd" d="M6 0.5C2.68629 0.5 0 3.18629 0 6.5C0 9.81371 2.68629 12.5 6 12.5C9.31371 12.5 12 9.81371 12 6.5C12 3.18629 9.31371 0.5 6 0.5ZM0.91455 6.5C0.91455 3.69138 3.19138 1.41455 6 1.41455C8.80862 1.41455 11.0855 3.69138 11.0855 6.5C11.0855 9.30862 8.80862 11.5855 6 11.5855C3.19138 11.5855 0.91455 9.30862 0.91455 6.5ZM6.45727 6.5C6.45727 6.24745 6.25255 6.04273 6 6.04273C5.74745 6.04273 5.54273 6.24745 5.54273 6.5V8.71709C5.54273 8.96964 5.74745 9.17437 6 9.17437C6.25255 9.17437 6.45727 8.96964 6.45727 8.71709V6.5ZM5.44573 4.83718C5.44573 4.53107 5.69388 4.28291 6 4.28291C6.30612 4.28291 6.55427 4.53107 6.55427 4.83718C6.55427 5.1433 6.30612 5.39146 6 5.39146C5.69388 5.39146 5.44573 5.1433 5.44573 4.83718Z" fill="#1B1D1F"/>
</svg>
