<svg width="21" height="20" viewBox="0 0 21 20" fill="none" xmlns="http://www.w3.org/2000/svg">
<path d="M7.16667 2.5C4.86917 2.5 3 4.36917 3 6.66667V13.3333C3 15.6308 4.86917 17.5 7.16667 17.5H13.8333C16.1308 17.5 18 15.6308 18 13.3333V6.66667C18 4.36917 16.1308 2.5 13.8333 2.5H7.16667ZM7.16667 4.16667H13.8333C15.2117 4.16667 16.3333 5.28833 16.3333 6.66667V13.3333C16.3333 14.7117 15.2117 15.8333 13.8333 15.8333H7.16667C5.78833 15.8333 4.66667 14.7117 4.66667 13.3333V6.66667C4.66667 5.28833 5.78833 4.16667 7.16667 4.16667ZM14.6667 5C14.4457 5 14.2337 5.0878 14.0774 5.24408C13.9211 5.40036 13.8333 5.61232 13.8333 5.83333C13.8333 6.05435 13.9211 6.26631 14.0774 6.42259C14.2337 6.57887 14.4457 6.66667 14.6667 6.66667C14.8877 6.66667 15.0996 6.57887 15.2559 6.42259C15.4122 6.26631 15.5 6.05435 15.5 5.83333C15.5 5.61232 15.4122 5.40036 15.2559 5.24408C15.0996 5.0878 14.8877 5 14.6667 5ZM10.5 5.83333C8.2025 5.83333 6.33333 7.7025 6.33333 10C6.33333 12.2975 8.2025 14.1667 10.5 14.1667C12.7975 14.1667 14.6667 12.2975 14.6667 10C14.6667 7.7025 12.7975 5.83333 10.5 5.83333ZM10.5 7.5C11.8783 7.5 13 8.62167 13 10C13 11.3783 11.8783 12.5 10.5 12.5C9.12167 12.5 8 11.3783 8 10C8 8.62167 9.12167 7.5 10.5 7.5Z" fill="black"/>
</svg>
