<svg width="17" height="16" viewBox="0 0 17 16" fill="none" xmlns="http://www.w3.org/2000/svg">
<g clip-path="url(#clip0_22_30729)">
<path d="M15.8097 10.8775C16.1376 10.4592 16.2949 10.0109 16.2748 9.54914C16.2547 9.04057 16.0272 8.64241 15.8398 8.39816C16.0573 7.85613 16.141 7.00293 15.4149 6.34044C14.8829 5.85529 13.9795 5.63781 12.7282 5.69803C11.8482 5.73818 11.1121 5.90213 11.082 5.90882H11.0786C10.9114 5.93894 10.734 5.97574 10.5533 6.01589C10.54 5.80176 10.5768 5.26976 10.9716 4.07194C11.44 2.64659 11.4132 1.55583 10.8846 0.826432C10.3292 0.0602259 9.44251 0 9.18153 0C8.93059 0 8.69972 0.103722 8.53578 0.294437C8.16438 0.726056 8.20788 1.52238 8.25472 1.89042C7.81307 3.07486 6.57509 5.97909 5.52783 6.78545C5.50775 6.79883 5.49102 6.81556 5.4743 6.83229C5.16647 7.15684 4.95903 7.50816 4.8185 7.81598C4.6211 7.70891 4.39692 7.64868 4.15602 7.64868H2.11503C1.34548 7.64868 0.723145 8.27436 0.723145 9.04057V14.4776C0.723145 15.2472 1.34882 15.8695 2.11503 15.8695H4.15602C4.4538 15.8695 4.73151 15.7758 4.95903 15.6152L5.74531 15.7089C5.86576 15.7256 8.00713 15.9967 10.2054 15.9532C10.6035 15.9833 10.9783 16 11.3262 16C11.9252 16 12.4471 15.9532 12.8821 15.8595C13.9059 15.642 14.6052 15.207 14.9599 14.568C15.2309 14.0795 15.2309 13.5943 15.1874 13.2865C15.8532 12.6842 15.9703 12.0184 15.9469 11.55C15.9335 11.279 15.8733 11.0481 15.8097 10.8775ZM2.11503 14.9661C1.84401 14.9661 1.62653 14.7453 1.62653 14.4776V9.03722C1.62653 8.76621 1.84736 8.54873 2.11503 8.54873H4.15602C4.42703 8.54873 4.64452 8.76955 4.64452 9.03722V14.4743C4.64452 14.7453 4.42369 14.9628 4.15602 14.9628H2.11503V14.9661ZM14.9532 10.486C14.8126 10.6332 14.7859 10.8574 14.893 11.0314C14.893 11.0347 15.0301 11.2689 15.0469 11.5901C15.0703 12.0284 14.8595 12.4166 14.4178 12.7478C14.2606 12.8683 14.197 13.0757 14.2639 13.2631C14.2639 13.2664 14.4078 13.7081 14.1736 14.1263C13.9494 14.5278 13.4509 14.8156 12.6947 14.9762C12.0891 15.1067 11.266 15.1301 10.2556 15.0498C10.2422 15.0498 10.2254 15.0498 10.2087 15.0498C8.05732 15.0966 5.88249 14.8156 5.85907 14.8122H5.85573L5.51779 14.7721C5.53787 14.6784 5.5479 14.578 5.5479 14.4776V9.03722C5.5479 8.89335 5.52448 8.75282 5.48433 8.62233C5.54456 8.39816 5.71185 7.89962 6.10667 7.4747C7.60897 6.28356 9.07781 2.26516 9.14138 2.09118C9.16815 2.02091 9.17484 1.94396 9.16146 1.867C9.10458 1.49226 9.12465 1.03388 9.20495 0.896696C9.38228 0.900042 9.86075 0.95023 10.1485 1.34839C10.4898 1.82016 10.4764 2.66332 10.1083 3.78085C9.54623 5.4839 9.49939 6.38059 9.94439 6.77541C10.1652 6.97282 10.4597 6.98285 10.6738 6.9059C10.8779 6.85906 11.072 6.8189 11.256 6.78879C11.2694 6.78545 11.2861 6.7821 11.2995 6.77875C12.3267 6.55458 14.1669 6.4174 14.806 6.99958C15.348 7.49477 14.9632 8.15057 14.9197 8.22083C14.7959 8.4082 14.8327 8.65245 15 8.80301C15.0034 8.80636 15.3547 9.1376 15.3714 9.5826C15.3848 9.88039 15.2443 10.1849 14.9532 10.486Z" fill="black"/>
</g>
<defs>
<clipPath id="clip0_22_30729">
<rect width="16" height="16" fill="white" transform="translate(0.5)"/>
</clipPath>
</defs>
</svg>
