<svg width="26" height="25" viewBox="0 0 26 25" fill="none" xmlns="http://www.w3.org/2000/svg">
<path d="M17.375 21.875H7.72018C7.08912 21.875 6.77359 21.875 6.62748 21.7502C6.50071 21.6419 6.43343 21.4795 6.44651 21.3133C6.46158 21.1217 6.6847 20.8986 7.13092 20.4524L15.9882 11.5952C16.4007 11.1827 16.6069 10.9764 16.8448 10.8991C17.054 10.8311 17.2793 10.8311 17.4886 10.8991C17.7264 10.9764 17.9327 11.1827 18.3452 11.5952L22.375 15.625V16.875M17.375 21.875C19.1252 21.875 20.0002 21.875 20.6687 21.5344C21.2567 21.2348 21.7348 20.7567 22.0344 20.1687C22.375 19.5002 22.375 18.6252 22.375 16.875M17.375 21.875H8.625C6.87484 21.875 5.99975 21.875 5.33128 21.5344C4.74327 21.2348 4.26521 20.7567 3.9656 20.1687C3.625 19.5002 3.625 18.6252 3.625 16.875V8.125C3.625 6.37484 3.625 5.49975 3.9656 4.83128C4.26521 4.24327 4.74327 3.76521 5.33128 3.4656C5.99975 3.125 6.87484 3.125 8.625 3.125H17.375C19.1252 3.125 20.0002 3.125 20.6687 3.4656C21.2567 3.76521 21.7348 4.24327 22.0344 4.83128C22.375 5.49975 22.375 6.37484 22.375 8.125V16.875M11.4375 8.85417C11.4375 10.0048 10.5048 10.9375 9.35417 10.9375C8.20357 10.9375 7.27083 10.0048 7.27083 8.85417C7.27083 7.70357 8.20357 6.77083 9.35417 6.77083C10.5048 6.77083 11.4375 7.70357 11.4375 8.85417Z" stroke="#0D64E8" stroke-width="2" stroke-linecap="round" stroke-linejoin="round"/>
</svg>
