<svg width="17" height="16" viewBox="0 0 17 16" fill="none" xmlns="http://www.w3.org/2000/svg">
<path d="M11.0033 9.50333H10.4766L10.2899 9.32333C10.9433 8.56333 11.3366 7.57666 11.3366 6.50333C11.3366 4.11 9.39659 2.17 7.00326 2.17C4.60992 2.17 2.66992 4.11 2.66992 6.50333C2.66992 8.89667 4.60992 10.8367 7.00326 10.8367C8.07659 10.8367 9.06326 10.4433 9.82326 9.79L10.0033 9.97667V10.5033L13.3366 13.83L14.3299 12.8367L11.0033 9.50333ZM7.00326 9.50333C5.34326 9.50333 4.00326 8.16333 4.00326 6.50333C4.00326 4.84333 5.34326 3.50333 7.00326 3.50333C8.66326 3.50333 10.0033 4.84333 10.0033 6.50333C10.0033 8.16333 8.66326 9.50333 7.00326 9.50333Z" fill="black"/>
</svg>
