<svg width="19" height="18" viewBox="0 0 19 18" fill="none" xmlns="http://www.w3.org/2000/svg">
<g clip-path="url(#clip0_22_30735)">
<path d="M17.8793 9.66902C18.2275 9.28726 18.2275 8.70313 17.8793 8.32137L12.0295 1.90676C11.4141 1.23197 10.2906 1.66733 10.2906 2.5806V5.38824H9.33768C6.97713 5.38824 4.75775 6.30753 3.08852 7.97676C1.41928 9.646 0.5 11.8654 0.5 14.2261V16.7104C0.5 17.167 1.06155 17.3847 1.36931 17.0475L2.07434 16.275C4.18028 13.9677 7.16966 12.633 10.2906 12.6027V15.4099C10.2906 16.3232 11.4141 16.7585 12.0295 16.0837L17.8793 9.66902ZM1.55482 15.2883V14.2261C1.55482 12.1472 2.36438 10.1926 3.83435 8.72259C5.30432 7.25262 7.25879 6.44307 9.33768 6.44307H11.3453V2.722L17.0664 8.99519L11.3453 15.2685V11.5475H10.399C7.06955 11.5475 3.86786 12.9063 1.55482 15.2883Z" fill="black"/>
</g>
<defs>
<clipPath id="clip0_22_30735">
<rect width="18" height="18" fill="white" transform="translate(0.5)"/>
</clipPath>
</defs>
</svg>
