<svg width="20" height="21" viewBox="0 0 20 21" fill="none" xmlns="http://www.w3.org/2000/svg">
<path d="M14.9955 18.8323C14.3012 18.8323 13.7111 18.5893 13.2251 18.1032C12.7392 17.6172 12.4962 17.027 12.4962 16.3326C12.4962 16.2354 12.5031 16.1347 12.517 16.0306C12.5309 15.9264 12.5517 15.8327 12.5795 15.7494L6.70616 12.3332C6.47011 12.5415 6.2063 12.7047 5.91472 12.8227C5.62313 12.9408 5.31766 12.9998 4.99831 12.9998C4.30406 12.9998 3.71395 12.7568 3.22798 12.2707C2.74201 11.7847 2.49902 11.1945 2.49902 10.5001C2.49902 9.80578 2.74201 9.21558 3.22798 8.72954C3.71395 8.2435 4.30406 8.00048 4.99831 8.00048C5.31766 8.00048 5.62313 8.0595 5.91472 8.17754C6.2063 8.29558 6.47011 8.45875 6.70616 8.66705L12.5795 5.25087C12.5517 5.16755 12.5309 5.07381 12.517 4.96966C12.5031 4.8655 12.4962 4.76482 12.4962 4.66762C12.4962 3.97327 12.7392 3.38307 13.2251 2.89703C13.7111 2.41099 14.3012 2.16797 14.9955 2.16797C15.6897 2.16797 16.2798 2.41099 16.7658 2.89703C17.2518 3.38307 17.4948 3.97327 17.4948 4.66762C17.4948 5.36196 17.2518 5.95216 16.7658 6.4382C16.2798 6.92424 15.6897 7.16726 14.9955 7.16726C14.6761 7.16726 14.3706 7.10824 14.0791 6.9902C13.7875 6.87217 13.5237 6.70899 13.2876 6.50069L7.41429 9.91687C7.44206 10.0002 7.46289 10.0939 7.47677 10.1981C7.49066 10.3022 7.4976 10.4029 7.4976 10.5001C7.4976 10.5973 7.49066 10.698 7.47677 10.8022C7.46289 10.9063 7.44206 11.0001 7.41429 11.0834L13.2876 14.4996C13.5237 14.2913 13.7875 14.1281 14.0791 14.01C14.3706 13.892 14.6761 13.833 14.9955 13.833C15.6897 13.833 16.2798 14.076 16.7658 14.5621C17.2518 15.0481 17.4948 15.6383 17.4948 16.3326C17.4948 17.027 17.2518 17.6172 16.7658 18.1032C16.2798 18.5893 15.6897 18.8323 14.9955 18.8323ZM14.9955 5.50083C15.2315 5.50083 15.4294 5.42098 15.589 5.26128C15.7487 5.10158 15.8286 4.90369 15.8286 4.66762C15.8286 4.43154 15.7487 4.23365 15.589 4.07395C15.4294 3.91425 15.2315 3.8344 14.9955 3.8344C14.7594 3.8344 14.5616 3.91425 14.4019 4.07395C14.2422 4.23365 14.1624 4.43154 14.1624 4.66762C14.1624 4.90369 14.2422 5.10158 14.4019 5.26128C14.5616 5.42098 14.7594 5.50083 14.9955 5.50083ZM4.99831 11.3333C5.23435 11.3333 5.43222 11.2535 5.59189 11.0938C5.75157 10.9341 5.83141 10.7362 5.83141 10.5001C5.83141 10.264 5.75157 10.0662 5.59189 9.90646C5.43222 9.74676 5.23435 9.66691 4.99831 9.66691C4.76227 9.66691 4.56441 9.74676 4.40473 9.90646C4.24505 10.0662 4.16522 10.264 4.16522 10.5001C4.16522 10.7362 4.24505 10.9341 4.40473 11.0938C4.56441 11.2535 4.76227 11.3333 4.99831 11.3333ZM14.9955 17.1659C15.2315 17.1659 15.4294 17.086 15.589 16.9263C15.7487 16.7666 15.8286 16.5687 15.8286 16.3326C15.8286 16.0966 15.7487 15.8987 15.589 15.739C15.4294 15.5793 15.2315 15.4994 14.9955 15.4994C14.7594 15.4994 14.5616 15.5793 14.4019 15.739C14.2422 15.8987 14.1624 16.0966 14.1624 16.3326C14.1624 16.5687 14.2422 16.7666 14.4019 16.9263C14.5616 17.086 14.7594 17.1659 14.9955 17.1659Z" fill="#0D64E8"/>
</svg>
