<svg width="21" height="20" viewBox="0 0 21 20" fill="none" xmlns="http://www.w3.org/2000/svg">
<path d="M6.46152 17.9647C6.05662 17.9647 5.71234 17.8229 5.42869 17.5392C5.14503 17.2556 5.00321 16.9113 5.00321 16.5064C5.00321 16.1015 5.14503 15.7572 5.42869 15.4736C5.71234 15.1899 6.05662 15.0481 6.46152 15.0481C6.86644 15.0481 7.21072 15.1899 7.49437 15.4736C7.77803 15.7572 7.91985 16.1015 7.91985 16.5064C7.91985 16.9113 7.77803 17.2556 7.49437 17.5392C7.21072 17.8229 6.86644 17.9647 6.46152 17.9647ZM14.5384 17.9647C14.1335 17.9647 13.7892 17.8229 13.5056 17.5392C13.2219 17.2556 13.0801 16.9113 13.0801 16.5064C13.0801 16.1015 13.2219 15.7572 13.5056 15.4736C13.7892 15.1899 14.1335 15.0481 14.5384 15.0481C14.9433 15.0481 15.2876 15.1899 15.5713 15.4736C15.8549 15.7572 15.9967 16.1015 15.9967 16.5064C15.9967 16.9113 15.8549 17.2556 15.5713 17.5392C15.2876 17.8229 14.9433 17.9647 14.5384 17.9647ZM5.51279 4.79166L7.62498 9.21474H13.3061C13.3541 9.21474 13.3969 9.20272 13.4343 9.17868C13.4717 9.15464 13.5037 9.12125 13.5304 9.07852L15.766 5.01602C15.7981 4.95725 15.8007 4.90517 15.774 4.85977C15.7473 4.81435 15.7019 4.79164 15.6378 4.79164L5.51279 4.79166ZM4.91344 3.5417H16.4839C16.8247 3.5417 17.0825 3.68673 17.2571 3.97679C17.4318 4.26686 17.4401 4.56306 17.282 4.86541L14.6121 9.70189C14.4754 9.94228 14.2946 10.1295 14.0697 10.2636C13.8448 10.3977 13.5983 10.4647 13.3301 10.4647H7.24998L6.28523 12.2275C6.24249 12.2916 6.24116 12.3611 6.28123 12.4359C6.3213 12.5107 6.3814 12.5481 6.46152 12.5481H15.9967V13.798H6.46152C5.90598 13.798 5.48851 13.5585 5.20913 13.0793C4.92975 12.6001 4.91987 12.1218 5.17948 11.6442L6.3686 9.50639L3.33654 3.12497H1.75V1.87502H4.12177L4.91344 3.54168V3.5417Z" fill="#111827"/>
</svg>
