<svg width="32" height="32" viewBox="0 0 32 32" fill="none" xmlns="http://www.w3.org/2000/svg">
<path d="M18.5381 28.0717C18.1544 28.4545 17.679 28.646 17.1119 28.646C16.5448 28.646 16.0698 28.4545 15.6868 28.0717L3.95351 16.3383C3.76035 16.1452 3.60865 15.9228 3.49841 15.6713C3.38814 15.4198 3.33301 15.1516 3.33301 14.8666V5.33322C3.33301 4.78793 3.53002 4.31829 3.92404 3.92429C4.31804 3.53026 4.78769 3.33325 5.33297 3.33325H14.8663C15.1415 3.33325 15.4051 3.38696 15.6571 3.49439C15.9092 3.60179 16.1276 3.74636 16.3124 3.92812L28.0458 15.682C28.4372 16.0734 28.6351 16.5516 28.6393 17.1166C28.6436 17.6815 28.4543 18.1554 28.0714 18.5383L18.5381 28.0717ZM17.1067 26.6666L26.6458 17.1332L14.872 5.33322H5.33297V14.8666L17.1067 26.6666ZM8.66481 10.3332C9.12734 10.3332 9.521 10.1713 9.84577 9.84752C10.1706 9.52374 10.3329 9.13059 10.3329 8.66805C10.3329 8.20552 10.1711 7.81186 9.84727 7.48709C9.5235 7.16231 9.13034 6.99992 8.66781 6.99992C8.20528 6.99992 7.81162 7.16181 7.48684 7.48559C7.16206 7.80936 6.99968 8.20252 6.99968 8.66505C6.99968 9.12759 7.16156 9.52124 7.48534 9.84602C7.80912 10.1708 8.20227 10.3332 8.66481 10.3332Z" fill="#0D64E8"/>
</svg>
