<svg width="26" height="25" viewBox="0 0 26 25" fill="none" xmlns="http://www.w3.org/2000/svg">
<path d="M14.0423 7.29167H5.91732C4.75054 7.29167 4.16715 7.29167 3.7215 7.51874C3.3295 7.71847 3.01079 8.03718 2.81105 8.42919C2.58398 8.87484 2.58398 9.45822 2.58398 10.625V14.375C2.58398 15.5418 2.58398 16.1252 2.81105 16.5708C3.01079 16.9628 3.3295 17.2815 3.7215 17.4813C4.16715 17.7083 4.75054 17.7083 5.91732 17.7083H14.0423M18.209 7.29167H20.084C21.2508 7.29167 21.8341 7.29167 22.2798 7.51874C22.6718 7.71847 22.9905 8.03718 23.1902 8.42919C23.4173 8.87484 23.4173 9.45822 23.4173 10.625V14.375C23.4173 15.5418 23.4173 16.1252 23.1902 16.5708C22.9905 16.9628 22.6718 17.2815 22.2798 17.4813C21.8341 17.7083 21.2508 17.7083 20.084 17.7083H18.209M18.209 21.875L18.209 3.125M20.8132 3.12501L15.6048 3.125M20.8132 21.875L15.6048 21.875" stroke="#0D64E8" stroke-width="2" stroke-linecap="round" stroke-linejoin="round"/>
</svg>
