<svg width="27" height="26" viewBox="0 0 27 26" fill="none" xmlns="http://www.w3.org/2000/svg">
<path d="M18.916 21.6667H24.3327V19.5C24.3327 17.7051 22.8776 16.25 21.0827 16.25C20.0474 16.25 19.1253 16.734 18.5301 17.4881M18.916 21.6667H8.08268M18.916 21.6667V19.5C18.916 18.7891 18.7791 18.1101 18.5301 17.4881M8.08268 21.6667H2.66602V19.5C2.66602 17.7051 4.12109 16.25 5.91602 16.25C6.95126 16.25 7.87345 16.734 8.46862 17.4881M8.08268 21.6667V19.5C8.08268 18.7891 8.21964 18.1101 8.46862 17.4881M8.46862 17.4881C9.26731 15.4928 11.2187 14.0833 13.4993 14.0833C15.78 14.0833 17.7314 15.4928 18.5301 17.4881M16.7493 7.58334C16.7493 9.37827 15.2943 10.8333 13.4993 10.8333C11.7044 10.8333 10.2493 9.37827 10.2493 7.58334C10.2493 5.78842 11.7044 4.33334 13.4993 4.33334C15.2943 4.33334 16.7493 5.78842 16.7493 7.58334ZM23.2493 10.8333C23.2493 12.03 22.2793 13 21.0827 13C19.8861 13 18.916 12.03 18.916 10.8333C18.916 9.63673 19.8861 8.66668 21.0827 8.66668C22.2793 8.66668 23.2493 9.63673 23.2493 10.8333ZM8.08268 10.8333C8.08268 12.03 7.11263 13 5.91602 13C4.7194 13 3.74935 12.03 3.74935 10.8333C3.74935 9.63673 4.7194 8.66668 5.91602 8.66668C7.11263 8.66668 8.08268 9.63673 8.08268 10.8333Z" stroke="#0D64E8" stroke-width="2" stroke-linecap="round" stroke-linejoin="round"/>
</svg>
