<svg width="21" height="20" viewBox="0 0 21 20" fill="none" xmlns="http://www.w3.org/2000/svg">
<path d="M18.6676 6.68403C18.6676 6.68403 18.5049 5.54036 18.0036 5.03819C17.3688 4.37726 16.6592 4.37402 16.3337 4.33514C14.0029 4.16667 10.5036 4.16667 10.5036 4.16667H10.4971C10.4971 4.16667 6.99772 4.16667 4.66699 4.33514C4.34147 4.37402 3.63184 4.37726 2.99707 5.03819C2.49577 5.54036 2.33626 6.68403 2.33626 6.68403C2.33626 6.68403 2.16699 8.02856 2.16699 9.36986V10.6269C2.16699 11.9682 2.33301 13.3127 2.33301 13.3127C2.33301 13.3127 2.49577 14.4564 2.99382 14.9586C3.62858 15.6195 4.46191 15.5968 4.83301 15.6681C6.16764 15.7945 10.5003 15.8333 10.5003 15.8333C10.5003 15.8333 14.0029 15.8269 16.3337 15.6616C16.6592 15.6227 17.3688 15.6195 18.0036 14.9586C18.5049 14.4564 18.6676 13.3127 18.6676 13.3127C18.6676 13.3127 18.8337 11.9714 18.8337 10.6269V9.36986C18.8337 8.02856 18.6676 6.68403 18.6676 6.68403ZM8.77832 12.1529V7.49075L13.2803 9.82991L8.77832 12.1529Z" fill="#111827"/>
</svg>
