
<svg width="37" height="26" viewBox="0 0 37 26" fill="none" xmlns="http://www.w3.org/2000/svg">
<mask id="mask0_3497_39603" style="mask-type:alpha" maskUnits="userSpaceOnUse" x="0" y="0" width="37" height="26">
<rect width="37" height="26" fill="#016FD0"/>
</mask>
<g mask="url(#mask0_3497_39603)">
<rect width="37" height="26" rx="4" fill="white"/>
<path d="M8.52515 19.0896V13.8203H13.9695L14.5536 14.6007L15.1571 13.8203H34.9187V18.7262C34.9187 18.7262 34.4019 19.0844 33.8042 19.0896H22.8618L22.2032 18.259V19.0896H20.0451V17.6717C20.0451 17.6717 19.7503 17.8696 19.113 17.8696H18.3784V19.0896H15.1109L14.5276 18.2926L13.9353 19.0896H8.52515Z" fill="#016FD0"/>
<path d="M2.16772 9.84723L3.39545 6.91406H5.51867L6.21541 8.5571V6.91406H8.85477L9.26955 8.1016L9.67165 6.91406H21.5196V7.51108C21.5196 7.51108 22.1425 6.91406 23.1661 6.91406L27.0103 6.92783L27.695 8.54937V6.91406H29.9038L30.5117 7.8455V6.91406H32.7407V12.1834H30.5117L29.9291 11.2489V12.1834H26.684L26.3576 11.3527H25.4852L25.1642 12.1834H22.9634C22.0827 12.1834 21.5196 11.5986 21.5196 11.5986V12.1834H18.2014L17.5429 11.3527V12.1834H5.20412L4.878 11.3527H4.00838L3.68457 12.1834H2.16772V9.84723Z" fill="#016FD0"/>
<path d="M3.82903 7.5625L2.1731 11.5085H3.25119L3.55673 10.7183H5.33298L5.63694 11.5085H6.73878L5.08443 7.5625H3.82903ZM4.44169 8.48084L4.98311 9.86161H3.89868L4.44169 8.48084Z" fill="white"/>
<path d="M6.85303 11.5085V7.5625L8.38506 7.56833L9.27615 10.1124L10.1459 7.5625H11.6657V11.5085H10.7031V8.60091L9.68284 11.5085H8.8387L7.81556 8.60091V11.5085H6.85303Z" fill="white"/>
<path d="M12.3247 11.5085V7.5625H15.4656V8.44516H13.2974V9.12013H15.415V9.95087H13.2974V10.6518H15.4656V11.5085H12.3247Z" fill="white"/>
<path d="M16.0222 7.5625V11.5085H16.9848V10.1066H17.39L18.5441 11.5085H19.7204L18.4539 10.0547C18.9737 10.0098 19.5098 9.55253 19.5098 8.84268C19.5098 8.0123 18.8739 7.5625 18.1642 7.5625H16.0222ZM16.9848 8.44516H18.085C18.349 8.44516 18.541 8.65676 18.541 8.86052C18.541 9.12268 18.2922 9.27589 18.0993 9.27589H16.9848V8.44516Z" fill="white"/>
<path d="M20.8869 11.5085H19.9041V7.5625H20.8869V11.5085Z" fill="white"/>
<path d="M23.217 11.5085H23.0048C21.9784 11.5085 21.3552 10.6797 21.3552 9.55172C21.3552 8.39587 21.9714 7.5625 23.2676 7.5625H24.3315V8.49708H23.2287C22.7026 8.49708 22.3304 8.91793 22.3304 9.56146C22.3304 10.3256 22.7559 10.6466 23.369 10.6466H23.6223L23.217 11.5085Z" fill="white"/>
<path d="M25.3124 7.5625L23.6565 11.5085H24.7346L25.0401 10.7183H26.8164L27.1203 11.5085H28.2222L26.5678 7.5625H25.3124ZM25.9251 8.48084L26.4665 9.86161H25.3821L25.9251 8.48084Z" fill="white"/>
<path d="M28.3333 11.5085V7.5625H29.557L31.1195 10.0417V7.5625H32.0821V11.5085H30.8979L29.2958 8.96437V11.5085H28.3333Z" fill="white"/>
<path d="M9.18408 18.4147V14.4688H12.325V15.3514H10.1568V16.0264H12.2743V16.8571H10.1568V17.5581H12.325V18.4147H9.18408Z" fill="white"/>
<path d="M24.5737 18.4147V14.4688H27.7146V15.3514H25.5464V16.0264H27.6539V16.8571H25.5464V17.5581H27.7146V18.4147H24.5737Z" fill="white"/>
<path d="M12.4473 18.4147L13.9766 16.4661L12.4109 14.4688H13.6235L14.556 15.7035L15.4916 14.4688H16.6568L15.1117 16.4417L16.6438 18.4147H15.4313L14.5259 17.1994L13.6425 18.4147H12.4473Z" fill="white"/>
<path d="M16.7568 14.4688V18.4147H17.7447V17.1686H18.7579C19.6152 17.1686 20.265 16.7025 20.265 15.796C20.265 15.045 19.7554 14.4688 18.883 14.4688H16.7568ZM17.7447 15.3611H18.8117C19.0887 15.3611 19.2867 15.5351 19.2867 15.8155C19.2867 16.0788 19.0897 16.2698 18.8086 16.2698H17.7447V15.3611Z" fill="white"/>
<path d="M20.6836 14.4688V18.4147H21.6461V17.0129H22.0514L23.2055 18.4147H24.3818L23.1153 16.961C23.635 16.916 24.1712 16.4588 24.1712 15.7489C24.1712 14.9186 23.5353 14.4688 22.8256 14.4688H20.6836ZM21.6461 15.3514H22.7464C23.0103 15.3514 23.2023 15.563 23.2023 15.7668C23.2023 16.0289 22.9536 16.1821 22.7606 16.1821H21.6461V15.3514Z" fill="white"/>
<path d="M28.1613 18.4147V17.5581H30.0876C30.3727 17.5581 30.4961 17.4002 30.4961 17.2271C30.4961 17.0612 30.373 16.8935 30.0876 16.8935H29.2171C28.4605 16.8935 28.0391 16.421 28.0391 15.7116C28.0391 15.0789 28.425 14.4688 29.5494 14.4688H31.4238L31.0185 15.3566H29.3974C29.0875 15.3566 28.9921 15.5233 28.9921 15.6824C28.9921 15.846 29.11 16.0264 29.3467 16.0264H30.2586C31.1021 16.0264 31.4681 16.5167 31.4681 17.1589C31.4681 17.8493 31.0602 18.4147 30.2127 18.4147H28.1613Z" fill="white"/>
<path d="M31.6933 18.4147V17.5581H33.6196C33.9046 17.5581 34.0281 17.4002 34.0281 17.2271C34.0281 17.0612 33.905 16.8935 33.6196 16.8935H32.7491C31.9924 16.8935 31.571 16.421 31.571 15.7116C31.571 15.0789 31.9569 14.4688 33.0813 14.4688H34.9175L34.5505 15.3566H32.9294C32.6195 15.3566 32.5241 15.5233 32.5241 15.6824C32.5241 15.846 32.642 16.0264 32.8787 16.0264H33.7906C34.6341 16.0264 35.0001 16.5167 35.0001 17.1589C35.0001 17.8493 34.5922 18.4147 33.7447 18.4147H31.6933Z" fill="white"/>
</g>
</svg>