<svg width="184" height="28" viewBox="0 0 184 28" fill="none" xmlns="http://www.w3.org/2000/svg">
<path d="M149.457 25.7461V3.02734H152.431V25.7461H149.457Z" fill="#0D64E8"/>
<path d="M128.986 26.2373C126.695 26.2373 124.647 25.7288 122.84 24.7119C121.034 23.695 119.613 22.2886 118.578 20.4927C117.565 18.6969 117.058 16.663 117.058 14.3911C117.058 12.1192 117.565 10.0854 118.578 8.28951C119.613 6.49365 121.034 5.08726 122.84 4.07032C124.647 3.05339 126.695 2.54492 128.986 2.54492C130.947 2.54492 132.731 2.9452 134.339 3.74577C135.97 4.5247 137.291 5.62818 138.305 7.05621C139.318 8.48425 139.935 10.1287 140.155 11.9894H137.148C136.906 10.6479 136.41 9.49036 135.661 8.5167C134.912 7.52141 133.965 6.7533 132.819 6.21237C131.674 5.67145 130.385 5.40099 128.953 5.40099C127.235 5.40099 125.704 5.77964 124.36 6.53693C123.017 7.29422 121.97 8.35442 121.221 9.71755C120.494 11.0807 120.131 12.6385 120.131 14.3911C120.131 16.1221 120.494 17.6691 121.221 19.0322C121.97 20.3954 123.017 21.4556 124.36 22.2129C125.704 22.9701 127.235 23.3488 128.953 23.3488C130.385 23.3488 131.674 23.0891 132.819 22.5699C133.965 22.0289 134.912 21.2716 135.661 20.298C136.41 19.3027 136.906 18.1343 137.148 16.7928H140.155C139.935 18.6536 139.318 20.298 138.305 21.726C137.291 23.1541 135.97 24.2684 134.339 25.0689C132.731 25.8478 130.947 26.2373 128.986 26.2373Z" fill="#0D64E8"/>
<path d="M97.5054 26.2373C95.2364 26.2373 93.1877 25.7288 91.3593 24.7119C89.531 23.6733 88.0881 22.2561 87.0307 20.4603C85.9953 18.6428 85.4777 16.6197 85.4777 14.3911C85.4777 12.1625 85.9953 10.1503 87.0307 8.35443C88.0881 6.53693 89.531 5.11971 91.3593 4.10278C93.1877 3.06421 95.2364 2.54492 97.5054 2.54492C99.7743 2.54492 101.823 3.06421 103.651 4.10278C105.48 5.11971 106.912 6.53693 107.947 8.35443C108.982 10.1503 109.5 12.1625 109.5 14.3911C109.5 16.6197 108.982 18.6428 107.947 20.4603C106.912 22.2561 105.48 23.6733 103.651 24.7119C101.823 25.7288 99.7743 26.2373 97.5054 26.2373ZM97.5054 23.3488C99.2016 23.3488 100.733 22.9701 102.098 22.2129C103.464 21.4339 104.533 20.3629 105.304 18.9998C106.097 17.615 106.493 16.0788 106.493 14.3911C106.493 12.7034 106.097 11.178 105.304 9.81492C104.533 8.43016 103.464 7.34831 102.098 6.56938C100.733 5.79045 99.2016 5.40099 97.5054 5.40099C95.8092 5.40099 94.2782 5.79045 92.9124 6.56938C91.5466 7.34831 90.4782 8.43016 89.7072 9.81492C88.9362 11.178 88.5507 12.7034 88.5507 14.3911C88.5507 16.0788 88.9362 17.615 89.7072 18.9998C90.4782 20.3629 91.5466 21.4339 92.9124 22.2129C94.2782 22.9701 95.8092 23.3488 97.5054 23.3488Z" fill="#0D64E8"/>
<path d="M63.7534 25.7461V3.02734H66.7272V22.9225H78.9202V25.7461H63.7534Z" fill="#0D64E8"/>
<path d="M42.4459 26.2373C40.177 26.2373 38.1283 25.7288 36.2999 24.7119C34.4715 23.6733 33.0286 22.2561 31.9712 20.4603C30.9359 18.6428 30.4182 16.6197 30.4182 14.3911C30.4182 12.1625 30.9359 10.1503 31.9712 8.35443C33.0286 6.53693 34.4715 5.11971 36.2999 4.10278C38.1283 3.06421 40.177 2.54492 42.4459 2.54492C44.7149 2.54492 46.7636 3.06421 48.592 4.10278C50.4203 5.11971 51.8522 6.53693 52.8876 8.35443C53.9229 10.1503 54.4406 12.1625 54.4406 14.3911C54.4406 16.6197 53.9229 18.6428 52.8876 20.4603C51.8522 22.2561 50.4203 23.6733 48.592 24.7119C46.7636 25.7288 44.7149 26.2373 42.4459 26.2373ZM42.4459 23.3488C44.1421 23.3488 45.6731 22.9701 47.0389 22.2129C48.4047 21.4339 49.4731 20.3629 50.2441 18.9998C51.0372 17.615 51.4337 16.0788 51.4337 14.3911C51.4337 12.7034 51.0372 11.178 50.2441 9.81492C49.4731 8.43016 48.4047 7.34831 47.0389 6.56938C45.6731 5.79045 44.1421 5.40099 42.4459 5.40099C40.7497 5.40099 39.2187 5.79045 37.8529 6.56938C36.4871 7.34831 35.4187 8.43016 34.6477 9.81492C33.8767 11.178 33.4912 12.7034 33.4912 14.3911C33.4912 16.0788 33.8767 17.615 34.6477 18.9998C35.4187 20.3629 36.4871 21.4339 37.8529 22.2129C39.2187 22.9701 40.7497 23.3488 42.4459 23.3488Z" fill="#0D64E8"/>
<path d="M11.9286 26.2373C9.63759 26.2373 7.58892 25.7288 5.78256 24.7119C3.9762 23.695 2.55534 22.2886 1.51999 20.4927C0.506662 18.6969 0 16.663 0 14.3911C0 12.1192 0.506662 10.0854 1.51999 8.28951C2.55534 6.49365 3.9762 5.08726 5.78256 4.07032C7.58892 3.05339 9.63759 2.54492 11.9286 2.54492C13.8891 2.54492 15.6735 2.9452 17.2816 3.74577C18.9117 4.5247 20.2334 5.62818 21.2468 7.05621C22.2601 8.48425 22.8769 10.1287 23.0972 11.9894H20.0902C19.8479 10.6479 19.3523 9.49036 18.6033 8.5167C17.8543 7.52141 16.9071 6.7533 15.7616 6.21237C14.6161 5.67145 13.3274 5.40099 11.8955 5.40099C10.1773 5.40099 8.6463 5.77964 7.30254 6.53693C5.95879 7.29422 4.91242 8.35442 4.16344 9.71755C3.43649 11.0807 3.07301 12.6385 3.07301 14.3911C3.07301 16.1221 3.43649 17.6691 4.16344 19.0322C4.91242 20.3954 5.95879 21.4556 7.30254 22.2129C8.6463 22.9701 10.1773 23.3488 11.8955 23.3488C13.3274 23.3488 14.6161 23.0891 15.7616 22.5699C16.9071 22.0289 17.8543 21.2716 18.6033 20.298C19.3523 19.3027 19.8479 18.1343 20.0902 16.7928H23.0972C22.8769 18.6536 22.2601 20.298 21.2468 21.726C20.2334 23.1541 18.9117 24.2684 17.2816 25.0689C15.6735 25.8478 13.8891 26.2373 11.9286 26.2373Z" fill="#0D64E8"/>
<path fill-rule="evenodd" clip-rule="evenodd" d="M159.931 14.3651C159.931 7.83421 165.317 2.54492 171.966 2.54492C178.615 2.54492 184 7.83421 184 14.3651C184 20.896 178.615 26.1853 171.966 26.1853C165.317 26.1853 159.931 20.896 159.931 14.3651ZM167.498 19.592L170.711 15.5254L170.712 15.5249C171.299 14.7908 172.431 14.7692 173.041 15.4937L176.503 19.6305C177.068 20.3379 177.585 20.6038 178.034 20.6246C178.471 20.6449 178.875 20.4355 179.234 20.1068V20.1062L179.26 20.0752C180.536 18.5063 181.305 16.517 181.305 14.3554C181.305 9.29562 177.117 5.1826 171.966 5.1826C166.814 5.1826 162.627 9.29562 162.627 14.3554C162.627 16.4764 163.365 18.4161 164.6 19.9748C164.979 20.36 165.41 20.6231 165.88 20.6209C166.348 20.6187 166.893 20.3525 167.498 19.592Z" fill="#0D64E8"/>
</svg>
