<svg xmlns="http://www.w3.org/2000/svg" fill="none" viewBox="0 0 1626 1626"><path fill="#0D64E8" d="M813 0C363.799 0 0 363.799 0 813c0 449.2 363.799 813 813 813 449.2 0 813-363.8 813-813 0-449.201-363.8-813-813-813Zm503.67 1215.13c-51.78 49.76-121.71 68.59-200.39-31.61L880.245 896.385c-38.33-46.4-109.61-45.055-146.595 2.017L514.43 1180.83c-84.057 107.6-156.683 82.04-209.807 26.9-85.402-109.61-136.509-246.117-136.509-395.402 0-355.73 289.156-644.886 644.886-644.886 355.73 0 644.89 289.156 644.89 644.886 0 151.975-53.13 291.842-141.22 402.132v.67Z"/></svg>