<svg width="38" height="26" viewBox="0 0 38 26" fill="none" xmlns="http://www.w3.org/2000/svg">
<rect width="38" height="26" rx="4" fill="white"/>
<path fill-rule="evenodd" clip-rule="evenodd" d="M19.2714 18.588C17.9777 19.702 16.2996 20.3744 14.4658 20.3744C10.3741 20.3744 7.05713 17.0263 7.05713 12.8962C7.05713 8.76609 10.3741 5.41797 14.4658 5.41797C16.2996 5.41797 17.9777 6.09045 19.2714 7.20442C20.5651 6.09045 22.2433 5.41797 24.077 5.41797C28.1687 5.41797 31.4857 8.76609 31.4857 12.8962C31.4857 17.0263 28.1687 20.3744 24.077 20.3744C22.2433 20.3744 20.5651 19.702 19.2714 18.588Z" fill="#ED0006"/>
<path fill-rule="evenodd" clip-rule="evenodd" d="M19.2715 18.588C20.8644 17.2163 21.8745 15.1753 21.8745 12.8962C21.8745 10.6171 20.8644 8.57606 19.2715 7.20442C20.5652 6.09045 22.2433 5.41797 24.0771 5.41797C28.1688 5.41797 31.4858 8.76609 31.4858 12.8962C31.4858 17.0263 28.1688 20.3744 24.0771 20.3744C22.2433 20.3744 20.5652 19.702 19.2715 18.588Z" fill="#F9A000"/>
<path fill-rule="evenodd" clip-rule="evenodd" d="M19.2715 7.20312C20.8644 8.57477 21.8745 10.6158 21.8745 12.8949C21.8745 15.174 20.8644 17.215 19.2715 18.5866C17.6785 17.215 16.6685 15.174 16.6685 12.8949C16.6685 10.6158 17.6785 8.57477 19.2715 7.20312Z" fill="#FF5E00"/>
</svg>