<svg width="170" height="26" viewBox="0 0 170 26" fill="none" xmlns="http://www.w3.org/2000/svg">
<g clip-path="url(#clip0_1650_12471)">
<path d="M13.8514 1.2468C12.7676 0.591161 11.5537 0.257965 10.1989 0.257965H0V25.8388H2.87217V15.7569H10.2098C11.5646 15.7569 12.7785 15.413 13.8623 14.7144C14.9461 14.0157 15.8024 13.0806 16.4418 11.8983C17.0813 10.716 17.3956 9.37248 17.3956 7.85697C17.3956 6.34147 17.0813 5.12692 16.4418 3.96611C15.8024 2.8053 14.9461 1.90245 13.8623 1.2468H13.8514ZM13.8514 10.4688C13.4829 11.2319 12.9952 11.8446 12.3991 12.296C11.7922 12.7474 11.1202 12.9731 10.3507 12.9731H2.87217V3.03101H10.3507C11.1093 3.03101 11.7922 3.24598 12.3991 3.66516C13.0061 4.09509 13.4829 4.66475 13.8514 5.38488C14.22 6.10501 14.4042 6.91113 14.4042 7.81398C14.4042 8.81357 14.22 9.69492 13.8514 10.458V10.4688Z" fill="#0D64E8"/>
<path d="M34.8992 0.257965L25.0254 25.8388H27.9734L30.6613 18.7879H42.1717L44.8488 25.8388H47.9811L38.1723 0.257965H34.8883H34.8992ZM41.1204 16.0041H31.7343L34.2489 9.42622C34.4656 8.81357 34.6932 8.21167 34.91 7.59902C35.1268 6.98637 35.3544 6.37372 35.5711 5.75032C35.7879 5.12692 36.0047 4.50352 36.2106 3.89087C36.2973 3.64366 36.3732 3.39645 36.4599 3.13849C36.5249 3.33196 36.5899 3.51468 36.655 3.7189C36.8609 4.35305 37.0885 5.00869 37.3161 5.67508C37.5546 6.34147 37.7713 6.98637 37.9773 7.60976C38.1832 8.23316 38.3783 8.77057 38.5517 9.23275L41.1204 15.9934V16.0041Z" fill="#0D64E8"/>
<path d="M74.3624 14.7466C75.5438 14.0802 76.4759 13.1666 77.1587 12.0273C77.8415 10.8772 78.1884 9.60894 78.1884 8.19017C78.1884 6.67467 77.8307 5.33114 77.1154 4.13808C76.4 2.94503 75.4354 1.99918 74.2215 1.30054C73.0076 0.601909 71.642 0.257965 70.1463 0.257965H60.0449V25.8388H62.9171V15.7569H69.962L75.7714 25.8388H79.1963L73.0293 15.3163C73.4737 15.1658 73.918 14.9831 74.3299 14.7466H74.3624ZM62.9388 3.03101H69.7886C70.8399 3.03101 71.7829 3.24598 72.6066 3.68665C73.4303 4.12733 74.0698 4.72923 74.5358 5.51386C75.0019 6.29848 75.2403 7.17983 75.2403 8.17942C75.2403 9.10377 75.0452 9.93138 74.6551 10.6408C74.2649 11.3609 73.723 11.9306 73.0293 12.339C72.3356 12.7582 71.5444 12.9624 70.634 12.9624H62.9279V3.03101H62.9388Z" fill="#0D64E8"/>
<path d="M91.7578 25.8388H107.311V23.055H94.63V14.0695H105.317V11.2964H94.63V3.03101H107.387V0.257965H91.7578V25.8388Z" fill="#0D64E8"/>
<path d="M118.507 3.03101H125.877V25.8388H128.76V3.03101H136.423V0.257965H118.507V3.03101Z" fill="#0D64E8"/>
<path d="M156.897 0C149.657 0 143.793 5.8148 143.793 12.9946C143.793 20.1745 149.657 25.9893 156.897 25.9893C164.137 25.9893 170 20.1745 170 12.9946C170 5.8148 164.137 0 156.897 0ZM165.015 19.4221C164.18 20.2174 163.053 20.5184 161.785 18.9169L157.98 14.3274C157.363 13.5858 156.214 13.6073 155.618 14.3597L152.084 18.8739C150.73 20.5936 149.559 20.1852 148.703 19.3038C147.326 17.5519 146.503 15.37 146.503 12.9839C146.503 7.29806 151.163 2.67631 156.897 2.67631C162.63 2.67631 167.291 7.29806 167.291 12.9839C167.291 15.413 166.434 17.6486 165.015 19.4113V19.4221Z" fill="#0D64E8"/>
</g>
<defs>
<clipPath id="clip0_1650_12471">
<rect width="170" height="26" fill="white"/>
</clipPath>
</defs>
</svg>
