<svg width="38" height="26" viewBox="0 0 38 26" fill="none" xmlns="http://www.w3.org/2000/svg">
    <rect width="38" height="26" rx="4" fill="white"/>
    <path d="M16.2575 17.4242H14.1089L15.4528 9.13281H17.6013L16.2575 17.4242Z" fill="#00579F"/>
    <path d="M24.0456 9.33347C23.6218 9.1657 22.9496 8.98047 22.1184 8.98047C19.9966 8.98047 18.5025 10.1095 18.4933 11.7236C18.4757 12.9144 19.5631 13.5759 20.3764 13.973C21.2076 14.3787 21.4902 14.6436 21.4902 15.0052C21.4817 15.5607 20.8185 15.8167 20.1999 15.8167C19.3421 15.8167 18.8824 15.6847 18.1839 15.3757L17.901 15.2432L17.6003 17.1045C18.1043 17.3335 19.0327 17.5368 19.9966 17.5457C22.2511 17.5457 23.7188 16.4342 23.7362 14.7141C23.7448 13.7703 23.1706 13.047 21.9327 12.456C21.1812 12.0767 20.721 11.8209 20.721 11.4327C20.7298 11.0798 21.1102 10.7184 21.9585 10.7184C22.657 10.7007 23.1702 10.8682 23.559 11.0359L23.7534 11.1239L24.0456 9.33347Z" fill="#00579F"/>
    <path d="M26.9024 14.4869C27.0793 14.0105 27.7602 12.167 27.7602 12.167C27.7513 12.1847 27.9368 11.6819 28.0429 11.3732L28.193 12.0876C28.193 12.0876 28.5999 14.0723 28.6883 14.4869C28.3525 14.4869 27.3268 14.4869 26.9024 14.4869ZM29.5546 9.13281H27.8926C27.3801 9.13281 26.9907 9.28264 26.7696 9.82075L23.5781 17.4241H25.8326C25.8326 17.4241 26.2038 16.4007 26.2835 16.1803C26.5309 16.1803 28.724 16.1803 29.0422 16.1803C29.1039 16.4714 29.2985 17.4241 29.2985 17.4241H31.2879L29.5546 9.13281Z" fill="#00579F"/>
    <path d="M12.3142 9.13281L10.21 14.7868L9.98011 13.6401C9.59109 12.3169 8.37104 10.8794 7.00952 10.1646L8.93689 17.4154H11.209L14.5862 9.13281H12.3142Z" fill="#00579F"/>
    <path d="M8.25594 9.13281H4.79904L4.76367 9.30036C7.46027 9.9885 9.24617 11.6472 9.97992 13.6409L9.22843 9.82986C9.10471 9.30024 8.7245 9.15028 8.25594 9.13281Z" fill="#FAA61A"/>
</svg>
